<svg width="142" height="42" viewBox="0 0 142 42" fill="none" xmlns="http://www.w3.org/2000/svg">
<g clip-path="url(#clip0_2271_60806)">
<path d="M23.3358 34.9731C31.4814 34.9731 38.0848 28.3711 38.0848 20.2271C38.0848 12.0831 31.4814 5.48106 23.3358 5.48106C15.1902 5.48106 8.58691 12.0831 8.58691 20.2271C8.58691 28.3711 15.1902 34.9731 23.3358 34.9731Z" fill="#94D2BD"/>
<path d="M23.3355 39.8214C15.5421 39.8214 8.48854 35.208 5.36497 28.0691C5.09268 27.483 5.34763 26.7868 5.93384 26.5146C6.52005 26.2423 7.21639 26.4972 7.48869 27.0833C7.49562 27.0989 7.50256 27.1145 7.5095 27.131C10.2602 33.4177 16.4726 37.4796 23.3355 37.4805C32.8553 37.4805 40.6009 29.7364 40.6009 20.2184C40.6009 10.7004 32.8553 2.95634 23.3355 2.95634C16.464 2.95634 10.2463 7.02779 7.50083 13.3257C7.24241 13.9179 6.55214 14.1892 5.95899 13.9309C5.36671 13.6725 5.09528 12.9824 5.35457 12.3893C9.67744 2.46128 21.2326 -2.08269 31.1617 2.2402C41.0917 6.56221 45.6366 18.115 41.3129 28.0422C38.198 35.195 31.1383 39.8205 23.3355 39.8214Z" fill="#111927"/>
<path d="M21.4194 30.5791C20.7725 30.5808 20.2478 30.0572 20.2461 29.4112C20.2461 29.0965 20.371 28.7957 20.5956 28.5746L29.0713 20.2262L20.5956 11.8613C20.1351 11.4062 20.1308 10.6649 20.586 10.2045C21.0413 9.74412 21.7827 9.73978 22.2432 10.195L31.5636 19.3947C32.0241 19.8482 32.0293 20.5895 31.5757 21.0499C31.5714 21.0542 31.5679 21.0577 31.5636 21.062L22.2432 30.2427C22.0238 30.4594 21.7272 30.58 21.4194 30.5791Z" fill="#111927"/>
<path d="M29.9757 21.3975H1.17069C0.523774 21.3975 0 20.8739 0 20.2271C0 19.5803 0.523774 19.0566 1.17069 19.0566H29.9757C30.6226 19.0566 31.1463 19.5803 31.1463 20.2271C31.1463 20.8739 30.6226 21.3975 29.9757 21.3975Z" fill="#111927"/>
<path d="M59.5194 30.997C59.6382 30.997 59.7292 31.0369 59.7925 31.1175C59.8558 31.1981 59.9131 31.2848 59.9642 31.3776C60.0154 31.4626 60.1168 31.6594 60.2686 31.968C60.4212 32.2767 60.5652 32.5819 60.7004 32.8819C60.8357 33.1827 60.9034 33.3665 60.9034 33.4341C60.9034 33.5607 60.8314 33.6838 60.6874 33.8026C60.0865 34.2595 59.3372 34.6046 58.4397 34.8378C57.5422 35.0702 56.7166 35.1872 55.9631 35.1872C54.1854 35.1872 52.6591 34.7849 51.3853 33.9812C50.1114 33.1775 49.1332 32.0894 48.4516 30.7178C47.77 29.3462 47.4292 27.8064 47.4292 26.0967C47.4292 24.869 47.6087 23.7081 47.9686 22.6113C48.3285 21.5154 48.8557 20.5461 49.5494 19.7034C50.2432 18.8615 51.0965 18.2009 52.1085 17.7232C53.1205 17.2454 54.2782 17.0061 55.5815 17.0061C56.3516 17.0061 57.1728 17.1119 58.0452 17.3235C58.9167 17.535 59.6746 17.8523 60.318 18.2754C60.4871 18.3856 60.5721 18.5121 60.5721 18.6561C60.5721 18.6985 60.5322 18.8208 60.4516 19.0245C60.3709 19.2274 60.2755 19.458 60.1663 19.7164C60.0561 19.9748 59.9521 20.2097 59.855 20.4213C59.7578 20.6328 59.6919 20.7724 59.6581 20.84C59.6156 20.925 59.5627 21.0117 59.4994 21.1001C59.4361 21.1894 59.3451 21.2337 59.2263 21.2337C59.1499 21.2337 59.0806 21.2146 59.0164 21.1764C58.9522 21.1383 58.8872 21.1027 58.8195 21.0681C58.3365 20.7637 57.8483 20.5201 57.3532 20.338C56.858 20.156 56.3177 20.0649 55.7341 20.0649C54.9467 20.0649 54.2443 20.2409 53.626 20.5921C53.0077 20.9432 52.4848 21.4114 52.0573 21.9949C51.6298 22.5793 51.3055 23.2269 51.0861 23.9378C50.8658 24.6488 50.7557 25.3597 50.7557 26.0707C50.7557 27.1458 50.9439 28.1419 51.3211 29.061C51.6974 29.9791 52.2715 30.7204 53.0416 31.2831C53.8116 31.8458 54.7811 32.1276 55.9501 32.1276C56.5423 32.1276 57.0904 32.0469 57.5942 31.8865C58.0981 31.7261 58.5949 31.4886 59.0866 31.1756C59.1543 31.1331 59.2219 31.0932 59.2896 31.0551C59.3572 31.0169 59.4335 30.9979 59.5185 30.9979L59.5194 30.997Z" fill="#111927"/>
<path d="M63.6219 34.9965C63.275 34.9965 63.1016 34.8187 63.1016 34.4633C63.1016 33.9977 63.1076 33.5347 63.1206 33.0726C63.1337 32.6114 63.1441 32.1475 63.1527 31.6819C63.1692 30.7083 63.1822 29.7355 63.1909 28.7619C63.1996 27.7882 63.2039 26.8154 63.2039 25.8418C63.2039 24.8681 63.1996 23.8954 63.1909 22.9217C63.1822 21.9481 63.1692 20.9753 63.1527 20.0016C63.1441 19.5361 63.1337 19.0731 63.1206 18.611C63.1076 18.1497 63.1016 17.6859 63.1016 17.2203C63.1016 16.8648 63.275 16.6871 63.6219 16.6871H65.5522C65.7551 16.6871 65.8887 16.7296 65.952 16.8137C66.0153 16.8986 66.0552 17.0296 66.0725 17.2073C66.089 17.3174 66.0933 17.4362 66.0855 17.5628C66.0768 17.6893 66.0768 17.8125 66.0855 17.9312L66.0985 19.6323C66.1072 20.4785 66.1133 21.3273 66.1176 22.1778C66.1219 23.0284 66.1237 23.8815 66.1237 24.7364C66.1237 24.7537 66.1254 24.8022 66.1297 24.882C66.1341 24.9626 66.1618 25.0025 66.2121 25.0025C66.2546 25.0025 66.2971 24.9817 66.3387 24.9392C66.3804 24.8968 66.4107 24.8629 66.4281 24.8378C67.4522 23.7289 68.7477 23.1749 70.3139 23.1749C70.9825 23.1749 71.6051 23.3084 72.1809 23.5746C72.7567 23.8416 73.2241 24.2283 73.584 24.7364C73.9439 25.2444 74.1234 25.8539 74.1234 26.5649C74.1234 27.8766 74.1381 29.1928 74.1676 30.5132C74.1971 31.8336 74.2118 33.1498 74.2118 34.4615C74.2118 34.817 74.0384 34.9947 73.6915 34.9947H71.6979C71.495 34.9947 71.3614 34.9523 71.2981 34.8682C71.2348 34.7841 71.194 34.6523 71.1776 34.4745C71.1437 34.1867 71.1333 33.8382 71.1455 33.4272C71.1585 33.0171 71.1602 32.659 71.1516 32.3539C71.1429 31.5666 71.1385 30.782 71.1385 29.9991V27.6434C71.1385 27.0426 70.9694 26.5917 70.6304 26.2909C70.2913 25.9909 69.8343 25.8401 69.2585 25.8401C68.5474 25.8401 67.9656 26.062 67.512 26.5068C67.0594 26.9515 66.7229 27.4952 66.5026 28.1385C66.2824 28.7818 66.1722 29.4078 66.1722 30.0173C66.1722 30.762 66.1679 31.5051 66.1592 32.2455C66.1506 32.9859 66.1419 33.7289 66.1341 34.4737C66.1341 34.8205 65.9606 34.9939 65.6138 34.9939H63.6201L63.6219 34.9965Z" fill="#111927"/>
<path d="M82.2888 35.3008C81.0522 35.3008 79.9752 35.0554 79.0568 34.5647C78.1385 34.074 77.4248 33.3752 76.9175 32.47C76.4094 31.564 76.1553 30.4898 76.1553 29.2448C76.1553 28.0856 76.3963 27.0443 76.8794 26.1218C77.3615 25.1993 78.0431 24.4693 78.9242 23.9318C79.8043 23.3942 80.8372 23.1255 82.0226 23.1255C83.4872 23.1255 84.6363 23.5364 85.4705 24.3575C86.3047 25.1785 86.8692 26.2701 87.1658 27.633C87.1745 27.6582 87.1788 27.7006 87.1788 27.7596C87.1788 27.8862 87.1467 27.9815 87.0834 28.0448C87.0201 28.1081 86.9377 28.161 86.8354 28.2035C86.5475 28.3388 86.2431 28.4575 85.9214 28.559C85.5997 28.6604 85.2866 28.7705 84.9814 28.8893C84.0925 29.2196 83.1993 29.543 82.3018 29.8603C81.4043 30.1777 80.5154 30.5141 79.6352 30.8695C79.5676 30.9034 79.5338 30.9458 79.5338 30.9961C79.5338 31.0213 79.5425 31.0516 79.5589 31.0854C79.8971 31.6949 80.3628 32.1475 80.956 32.444C81.5482 32.7405 82.183 32.8879 82.8611 32.8879C83.3945 32.8879 83.8913 32.8038 84.3536 32.6339C84.8149 32.4648 85.2702 32.2533 85.7185 31.9992C85.7775 31.9654 85.8373 31.936 85.8963 31.9099C85.9552 31.8848 86.0151 31.8718 86.074 31.8718C86.1928 31.8718 86.2839 31.9082 86.3472 31.9802C86.4105 32.0521 86.4634 32.1345 86.5059 32.2281C86.5397 32.2871 86.6056 32.4206 86.7027 32.6278C86.7999 32.835 86.8935 33.0431 86.982 33.2503C87.0713 33.4575 87.1155 33.5911 87.1155 33.65C87.1155 33.7437 87.0904 33.8191 87.0392 33.8789C86.988 33.9379 86.9291 33.9934 86.8614 34.0436C86.2605 34.4589 85.5303 34.7719 84.6709 34.9835C83.8116 35.195 83.0181 35.3008 82.2897 35.3008H82.2888ZM79.1011 29.1173C79.9561 28.8208 80.8111 28.5252 81.6662 28.2286C82.5212 27.9321 83.3719 27.6365 84.2183 27.34C84.0067 26.8744 83.7127 26.4686 83.3355 26.121C82.9591 25.7742 82.4952 25.6008 81.9445 25.6008C81.3011 25.6008 80.7678 25.7742 80.3446 26.121C79.9214 26.4678 79.6084 26.9099 79.4046 27.4475C79.2017 27.985 79.1002 28.5416 79.1002 29.1173H79.1011Z" fill="#111927"/>
<path d="M96.6769 32.0764C96.7957 32.0764 96.8868 32.1146 96.9501 32.1909C97.0134 32.2672 97.0663 32.3521 97.1087 32.4449C97.1426 32.5125 97.2102 32.6781 97.3117 32.9399C97.4131 33.2027 97.5085 33.4601 97.597 33.7142C97.6863 33.9682 97.7305 34.1208 97.7305 34.1711C97.7305 34.3575 97.5848 34.5179 97.2926 34.6531C97.0003 34.7884 96.6509 34.8985 96.245 34.9835C95.8383 35.0676 95.4533 35.1291 95.0891 35.1673C94.7249 35.2054 94.4665 35.2245 94.3147 35.2245C92.5283 35.2245 91.1357 34.6956 90.1367 33.6379C89.1377 32.5801 88.6382 31.1704 88.6382 29.4104C88.6382 28.2338 88.8689 27.1761 89.3302 26.2363C89.7915 25.2964 90.4584 24.5517 91.3299 24.002C92.2014 23.4523 93.2472 23.1766 94.4665 23.1766C94.9408 23.1766 95.4524 23.2295 96.0031 23.3353C96.5538 23.4411 97.0359 23.6084 97.4504 23.8373C97.5345 23.8798 97.6048 23.9283 97.6603 23.9829C97.7149 24.0384 97.7427 24.1164 97.7427 24.2179C97.7427 24.3029 97.7218 24.387 97.6794 24.4719L97.0949 25.945C97.0012 26.1816 96.8538 26.3004 96.65 26.3004C96.565 26.3004 96.4722 26.2796 96.3708 26.2371C96.0915 26.1444 95.8123 26.0655 95.5322 26.0022C95.2521 25.9389 94.9651 25.9068 94.6685 25.9068C93.6444 25.9068 92.8847 26.2285 92.3887 26.8718C91.8936 27.5151 91.6455 28.3153 91.6455 29.2717C91.6455 30.228 91.8805 30.971 92.3506 31.6013C92.8206 32.2316 93.5507 32.5472 94.541 32.5472C94.8628 32.5472 95.1715 32.509 95.4681 32.4327C95.7646 32.3565 96.0603 32.2637 96.3569 32.1536C96.4081 32.1371 96.4584 32.1198 96.5095 32.1024C96.5598 32.0859 96.6153 32.0773 96.6743 32.0773L96.6769 32.0764Z" fill="#111927"/>
<path d="M100.131 34.9965C99.7843 34.9965 99.6108 34.8187 99.6108 34.4633C99.6108 33.9977 99.6169 33.5347 99.6299 33.0726C99.6429 32.6114 99.6533 32.1475 99.662 31.6819C99.6785 30.7083 99.6915 29.7355 99.7002 28.7619C99.7088 27.7882 99.7132 26.8154 99.7132 25.8418C99.7132 24.8681 99.7088 23.8954 99.7002 22.9217C99.6915 21.9481 99.6793 20.9753 99.662 20.0016C99.6533 19.5361 99.6429 19.0731 99.6299 18.611C99.6169 18.1497 99.6108 17.6859 99.6108 17.2203C99.6108 16.8648 99.7843 16.6871 100.131 16.6871H102.125C102.463 16.6871 102.637 16.8605 102.645 17.2073C102.67 17.698 102.681 18.1913 102.677 18.6864C102.673 19.1815 102.671 19.6748 102.671 20.1655C102.68 21.1981 102.686 22.2333 102.69 23.2694C102.695 24.3063 102.696 25.3407 102.696 26.3733V28.3535C102.696 28.4549 102.734 28.5061 102.811 28.5061C102.845 28.5061 102.87 28.5018 102.887 28.4931C103.733 28.2564 104.553 27.9581 105.345 27.5983C106.136 27.2385 106.833 26.7625 107.434 26.1704C108.035 25.5782 108.462 24.8291 108.716 23.9231C108.759 23.7792 108.818 23.6673 108.894 23.5867C108.97 23.5061 109.088 23.4662 109.249 23.4662H111.535C111.679 23.4662 111.802 23.4957 111.904 23.5555C112.005 23.6144 112.057 23.7246 112.057 23.8858C112.057 23.9196 112.048 23.9795 112.031 24.0636C111.752 25.2063 111.259 26.1626 110.552 26.9333C109.845 27.7032 109.014 28.3977 108.056 29.0159C107.997 29.0584 107.967 29.1009 107.967 29.1425C107.967 29.1676 108.083 29.3375 108.316 29.6505C108.549 29.9635 108.839 30.3485 109.186 30.8063C109.533 31.2632 109.889 31.7287 110.253 32.203C110.617 32.6772 110.939 33.0943 111.218 33.4532C111.497 33.813 111.675 34.048 111.751 34.1581C111.802 34.2257 111.854 34.3037 111.91 34.393C111.965 34.4823 111.992 34.5734 111.992 34.6662C111.992 34.8274 111.91 34.9219 111.744 34.9514C111.58 34.9809 111.442 34.9956 111.332 34.9956H109.147C109.003 34.9956 108.872 34.9323 108.753 34.8049C108.592 34.6358 108.436 34.4555 108.283 34.2656C108.131 34.0749 107.979 33.8867 107.826 33.7003C107.386 33.1758 106.948 32.6443 106.512 32.1068C106.076 31.5692 105.633 31.0421 105.185 30.5262C105.16 30.4837 105.122 30.4629 105.071 30.4629C105.045 30.4629 105.024 30.4673 105.007 30.4759C104.643 30.6112 104.275 30.7343 103.902 30.8444C103.53 30.9545 103.162 31.0776 102.798 31.2129C102.721 31.238 102.683 31.2892 102.683 31.3655L102.645 34.4763C102.645 34.8231 102.472 34.9965 102.125 34.9965H100.131Z" fill="#111927"/>
<path d="M113.935 29.8673C113.935 29.5968 113.937 29.3211 113.941 29.0419C113.945 28.7627 113.947 28.4879 113.947 28.2165C113.947 27.8697 114.12 27.6963 114.467 27.6963H120.664C121.011 27.6963 121.184 27.8697 121.184 28.2165C121.184 28.4957 121.186 28.7731 121.19 29.048C121.195 29.3228 121.197 29.6002 121.197 29.8794C121.197 30.2262 121.023 30.3996 120.676 30.3996H114.466C114.111 30.3996 113.933 30.2219 113.933 29.8664L113.935 29.8673Z" fill="#111927"/>
<path d="M123.84 19.1511C123.84 18.6855 124.013 18.2858 124.36 17.9512C124.707 17.6165 125.114 17.4501 125.579 17.4501C126.045 17.4501 126.47 17.6217 126.83 17.9642C127.19 18.3067 127.369 18.7193 127.369 19.2023C127.369 19.6852 127.197 20.0719 126.855 20.4152C126.512 20.7577 126.103 20.9293 125.63 20.9293C125.156 20.9293 124.728 20.7533 124.372 20.4022C124.017 20.0511 123.839 19.634 123.839 19.152L123.84 19.1511ZM124.031 26.8068V24.0011C124.031 23.6543 124.204 23.4809 124.551 23.4809H126.506C126.853 23.4809 127.027 23.6543 127.027 24.0011C127.027 25.7447 127.031 27.4908 127.04 29.2387C127.048 30.9866 127.053 32.7327 127.053 34.4763C127.053 34.8231 126.879 34.9965 126.532 34.9965H124.526C124.179 34.9965 124.005 34.8231 124.005 34.4763C124.005 33.1983 124.01 31.9204 124.018 30.6415C124.027 29.3636 124.031 28.0856 124.031 26.8076L124.031 26.8068Z" fill="#111927"/>
<path d="M131.93 23.4809C132.243 23.4809 132.416 23.6335 132.45 23.9378C132.475 24.1069 132.497 24.2768 132.513 24.4459C132.531 24.615 132.547 24.7849 132.564 24.954C132.564 24.9713 132.573 25.0199 132.59 25.0996C132.606 25.1803 132.636 25.2201 132.679 25.2201C132.721 25.2201 132.761 25.195 132.799 25.1438C132.838 25.0927 132.865 25.0545 132.882 25.0294C133.39 24.3774 134.007 23.9084 134.736 23.6205C135.463 23.3327 136.23 23.1888 137.034 23.1888C137.695 23.1888 138.302 23.3266 138.856 23.6014C139.41 23.8763 139.856 24.2664 140.196 24.7693C140.534 25.273 140.704 25.8721 140.704 26.5657C140.704 27.8775 140.718 29.1936 140.748 30.5141C140.777 31.8345 140.792 33.1506 140.792 34.4624C140.792 34.8179 140.619 34.9956 140.272 34.9956H138.278C137.956 34.9956 137.783 34.8222 137.758 34.4754C137.733 34.1113 137.724 33.7454 137.733 33.3769C137.741 33.0084 137.741 32.6426 137.733 32.2784C137.724 31.4999 137.72 30.7256 137.72 29.9548V27.6443C137.72 27.0434 137.546 26.5926 137.199 26.2918C136.853 25.9918 136.391 25.8409 135.815 25.8409C135.096 25.8409 134.505 26.0611 134.044 26.5016C133.582 26.942 133.239 27.4839 133.015 28.1263C132.791 28.7697 132.679 29.4 132.679 30.0181C132.679 30.7629 132.675 31.5059 132.666 32.2463C132.657 32.9868 132.648 33.7298 132.641 34.4745C132.641 34.8213 132.467 34.9947 132.12 34.9947H130.127C129.78 34.9947 129.606 34.817 129.606 34.4615C129.606 33.9873 129.613 33.5156 129.626 33.0457C129.639 32.5758 129.649 32.1085 129.658 31.6429C129.683 29.6627 129.696 27.6816 129.696 25.7013V24.0003C129.696 23.6535 129.869 23.4801 130.216 23.4801H131.93L131.93 23.4809Z" fill="#111927"/>
<path d="M47.3911 10.3458L47.8048 9.86637C48.2253 10.2886 48.7951 10.5288 49.3917 10.5357C50.1349 10.5357 50.565 10.1802 50.565 9.6843C50.565 9.10601 50.1435 8.94127 49.5981 8.70978L48.8176 8.36298C48.28 8.14883 47.6521 7.76822 47.6521 6.96711C47.6521 6.16599 48.3962 5.52875 49.429 5.52875C50.0516 5.52354 50.6517 5.7637 51.0983 6.19807L50.7349 6.64458C50.3725 6.31165 49.8955 6.13045 49.4038 6.14085C48.776 6.14085 48.3545 6.43823 48.3545 6.92115C48.3545 7.44136 48.8584 7.6321 49.3214 7.8133L50.082 8.1523C50.7514 8.4124 51.2804 8.79735 51.2804 9.59846C51.2804 10.4577 50.5528 11.1435 49.3631 11.1435C48.6251 11.1521 47.9158 10.8643 47.3911 10.3458Z" fill="#111927"/>
<path d="M52.3955 5.62758H53.2384L53.9989 7.94075L54.2591 8.81729H54.292L54.5522 7.94075L55.3214 5.62758H56.1642V11.0481H55.5026V8.33783C55.5026 7.80896 55.5893 6.883 55.6188 6.42089H55.5937L55.2875 7.47863L54.5114 9.6106H54.0154L53.2549 7.47863L52.941 6.42089H52.9245C52.9739 6.883 53.0398 7.80809 53.0398 8.33783V11.0481H52.3955V5.62758Z" fill="#111927"/>
<path d="M58.842 5.62758H59.6355L61.4617 11.0481H60.7177L59.7838 8.02398C59.5938 7.41708 59.4117 6.82578 59.247 6.1972H59.214C59.0406 6.82578 58.8672 7.42054 58.6764 8.02398L57.7225 11.0481H57.0166L58.842 5.62758ZM57.9826 8.84156H60.4697V9.40338H57.9826V8.84156Z" fill="#111927"/>
<path d="M62.5361 5.62758H64.2306C65.3302 5.62758 66.1314 6.0238 66.1314 7.15611C66.1314 8.28841 65.3302 8.7592 64.2306 8.7592H63.2385V11.0481H62.5361V5.62758ZM64.1317 8.19738C64.9746 8.19738 65.4377 7.85058 65.4377 7.15697C65.4377 6.46337 64.9746 6.19026 64.1317 6.19026H63.2385V8.19825H64.1317V8.19738ZM64.6356 8.20518L66.2884 11.0481H65.5079L64.0944 8.56932L64.6356 8.20518Z" fill="#111927"/>
<path d="M68.8103 6.21627H67.0161V5.62758H71.2974V6.21627H69.504V11.0507H68.8103V6.21627Z" fill="#111927"/>
</g>
<defs>
<clipPath id="clip0_2271_60806">
<rect width="142" height="40.7899" fill="white" transform="translate(0 0.605026)"/>
</clipPath>
</defs>
</svg>
